<svg id="Calque_1" data-name="Calque 1" xmlns="http://www.w3.org/2000/svg" viewBox="0 0 512 557"><defs><style>.cls-1{fill:#f2cb1d;}</style></defs><title>casque</title><path class="cls-1" d="M254.22,540.18h0q-3.08,0-6,0a2,2,0,0,1-2-2,2,2,0,0,1,2-2q2.93,0,6,0a2,2,0,0,1,0,4Zm10-.08a2,2,0,0,1,0-4c2-.05,4-.11,5.95-.19a2,2,0,1,1,.17,4c-2,.09-4,.15-6,.2Zm-26-.27h-.09c-2.06-.09-4.06-.19-6-.31a2,2,0,0,1,.25-4q2.91.18,5.95.32a2,2,0,0,1-.08,4Zm42-.52a2,2,0,0,1-.16-4q3-.24,5.94-.52a2,2,0,0,1,.39,4q-3,.29-6,.53Zm-57.92-.58h-.19q-3.08-.29-6-.63a2,2,0,1,1,.46-4q2.89.33,5.92.62a2,2,0,0,1-.19,4Zm73.82-1.12a2,2,0,0,1-.27-4c1.94-.26,3.93-.56,5.89-.87a2,2,0,0,1,.63,4c-2,.32-4,.62-6,.89Zm-89.68-.86-.31,0c-2-.31-4-.65-6-1a2,2,0,1,1,.71-3.93c2,.35,3.93.68,5.87,1a2,2,0,0,1-.31,4ZM311.87,535a2,2,0,0,1-.39-4c1.94-.39,3.9-.81,5.82-1.24a2,2,0,1,1,.88,3.9c-2,.44-3.94.86-5.91,1.26A2.71,2.71,0,0,1,311.87,535Zm-121.16-1.18a2.1,2.1,0,0,1-.43,0c-1.92-.42-3.9-.89-5.88-1.38a2,2,0,1,1,.95-3.88c2,.48,3.91.94,5.8,1.36a2,2,0,0,1-.44,3.95Zm136.74-2.46a2,2,0,0,1-.51-3.93c1.89-.5,3.82-1,5.73-1.6a2,2,0,1,1,1.12,3.84c-1.94.57-3.9,1.11-5.82,1.63A2.37,2.37,0,0,1,327.45,531.32Zm-152.24-1.46a2,2,0,0,1-.54-.07c-1.94-.54-3.87-1.1-5.79-1.66a2,2,0,0,1,1.13-3.84q2.85.84,5.74,1.65a2,2,0,0,1-.54,3.92Zm167.57-3.11a2,2,0,0,1-.63-3.91q2.93-1,5.64-1.92a2,2,0,1,1,1.33,3.77q-2.76,1-5.71,1.95A2,2,0,0,1,342.78,526.75Zm-182.89-1.44a1.69,1.69,0,0,1-.59-.09l-5.73-1.76a2,2,0,0,1,1.18-3.83l5.72,1.77a2,2,0,0,1-.58,3.91Zm198-3.94a2,2,0,0,1-.71-3.87l5.6-2.14a2,2,0,0,1,1.43,3.74l-5.61,2.14A2,2,0,0,1,357.85,521.37ZM144.6,520.6a1.91,1.91,0,0,1-.62-.1c-1.82-.6-3.76-1.3-5.75-2.07a2,2,0,1,1,1.44-3.73c1.93.75,3.8,1.42,5.56,2a2,2,0,0,1-.63,3.9Zm228.21-4.89a2,2,0,0,1-.67-3.88l.89-.32q2-.72,4.67-1.77a2,2,0,1,1,1.49,3.71c-1.8.73-3.42,1.34-4.81,1.83l-.89.31A2,2,0,0,1,372.81,515.71Zm-243.08-1.05a2,2,0,0,1-.83-.18c-1.78-.81-3.62-1.68-5.48-2.57a2,2,0,0,1,1.74-3.61c1.83.89,3.64,1.74,5.4,2.54a2,2,0,0,1-.83,3.82Zm257.94-5a2,2,0,0,1-.82-3.83q2.63-1.17,5.45-2.48A2,2,0,1,1,394,507c-1.9.88-3.74,1.72-5.5,2.5A2,2,0,0,1,387.67,509.67ZM115.34,507.6a1.93,1.93,0,0,1-.92-.23c-1.77-.92-3.55-1.87-5.33-2.83a2,2,0,0,1-.81-2.72A2,2,0,0,1,111,501q2.64,1.43,5.28,2.81a2,2,0,0,1-.93,3.77Zm286.86-4.7a2,2,0,0,1-.87-3.8c1.78-.86,3.58-1.73,5.39-2.63a2,2,0,0,1,1.77,3.59q-2.73,1.35-5.42,2.64A1.94,1.94,0,0,1,402.2,502.9Zm-300.91-3a2,2,0,0,1-1-.27c-1.76-1-3.51-2-5.23-3a2,2,0,0,1,2-3.46c1.71,1,3.45,2,5.19,3a2,2,0,0,1,.76,2.72A2,2,0,0,1,101.29,499.92Zm315.27-4.14a2,2,0,0,1-.91-3.78c1.79-.92,3.57-1.83,5.33-2.75a2,2,0,1,1,1.85,3.55l-5.36,2.76A2,2,0,0,1,416.56,495.78Zm-329.1-4a2,2,0,0,1-1-.28q-2.64-1.59-5.15-3.14A2,2,0,1,1,83.37,485c1.66,1,3.37,2.07,5.12,3.12a2,2,0,0,1,.68,2.75A2,2,0,0,1,87.46,491.81Zm343.29-3.49a2,2,0,0,1-1-3.76q2.71-1.47,5.25-2.89a2,2,0,1,1,1.95,3.49c-1.7,1-3.47,1.93-5.29,2.92A2,2,0,0,1,430.75,488.32ZM73.82,483.39a2,2,0,0,1-1.07-.31c-1.79-1.13-3.5-2.22-5.08-3.24a2,2,0,0,1,2.16-3.36l5.06,3.22a2,2,0,0,1-1.07,3.69Zm370.86-3a2,2,0,0,1-1-3.71c1.88-1.14,3.57-2.2,5-3.16a2,2,0,0,1,2.77.55,2,2,0,0,1-.56,2.78c-1.49,1-3.22,2.08-5.15,3.25A2,2,0,0,1,444.68,480.38ZM60.35,474.69a2,2,0,0,1-1.1-.33c-2.81-1.86-4.41-2.95-4.41-2.95l-.19-.13-.15-.17c-.6-.65-.55-1.2-.46-2.29a2,2,0,0,1,4-.09c.74.49,1.9,1.28,3.44,2.29a2,2,0,0,1-1.11,3.67Zm396.27-4.32h-.1a2,2,0,0,1-1.9-2.1c.14-2.75.31-4.82.43-6.08a2,2,0,0,1,4,.39c-.11,1.21-.28,3.21-.42,5.89A2,2,0,0,1,456.62,470.37ZM54.29,461.75a2,2,0,0,1-1.5-.67c-.71-.8-1.53-1.65-2.17-2.3A9.18,9.18,0,0,1,49,455.67a2,2,0,0,1,3.72-1.47,8.49,8.49,0,0,0,.86,1.83c.63.64,1.49,1.54,2.25,2.39a2,2,0,0,1-.17,2.83A2,2,0,0,1,54.29,461.75Zm407.54-5.56a2,2,0,0,1-1.92-2.54c.4-1.43,1-3.41,1.64-5.81a2,2,0,0,1,3.84,1.1c-.67,2.39-1.23,4.36-1.63,5.78A2,2,0,0,1,461.83,456.19ZM47.7,447.41A2,2,0,0,1,45.78,446c-.54-1.83-1.1-3.79-1.66-5.8A2,2,0,1,1,48,439.09c.56,2,1.11,3.93,1.65,5.75a2,2,0,0,1-1.36,2.49A2.1,2.1,0,0,1,47.7,447.41Zm418.5-6.67a2,2,0,0,1-1.92-2.54l1.63-5.79a2,2,0,0,1,3.85,1.08l-1.63,5.79A2,2,0,0,1,466.2,440.74ZM43.4,432a2,2,0,0,1-1.93-1.48c-.54-2-1.06-4-1.55-5.82a2,2,0,0,1,3.87-1l1.54,5.8a2,2,0,0,1-1.41,2.45A1.86,1.86,0,0,1,43.4,432Zm427.13-6.66a2,2,0,0,1-1.93-2.53c.53-1.91,1.06-3.85,1.59-5.8a2,2,0,0,1,3.86,1.06c-.53,2-1.07,3.89-1.6,5.8A2,2,0,0,1,470.53,425.3ZM39.28,416.46A2,2,0,0,1,37.35,415c-.43-1.6-.73-2.66-.9-3.24s-.38-1.35-.69-2.64a2,2,0,0,1,3.89-.93c.35,1.48.53,2.11.61,2.38.2.63.5,1.71,1,3.39a2,2,0,0,1-1.42,2.45A1.81,1.81,0,0,1,39.28,416.46Zm435.47-6.63a2.24,2.24,0,0,1-.52-.06,2,2,0,0,1-1.42-2.45q.79-2.94,1.54-5.81a2,2,0,0,1,3.87,1c-.5,1.91-1,3.86-1.54,5.82A2,2,0,0,1,474.75,409.83Zm-439.24-9a2,2,0,0,1-1.95-1.58c-.4-1.83-.82-3.8-1.26-5.89a2,2,0,1,1,3.91-.82c.44,2.08.86,4.05,1.26,5.87a2,2,0,0,1-2,2.42Zm443.28-6.53a2,2,0,0,1-.49-.06,2,2,0,0,1-1.46-2.43c.51-2,1-4,1.43-5.82a2,2,0,0,1,3.89.93c-.44,1.85-.92,3.81-1.44,5.86A2,2,0,0,1,478.79,394.32ZM32.21,385.16a2,2,0,0,1-1.95-1.6q-.6-2.9-1.21-5.9a2,2,0,0,1,1.57-2.36A2,2,0,0,1,33,376.87c.41,2,.81,4,1.2,5.88a2,2,0,0,1-1.55,2.36A1.92,1.92,0,0,1,32.21,385.16Zm450.13-6.48a1.47,1.47,0,0,1-.36,0,2,2,0,0,1-1.6-2.33l.33-1.93c.18-1.22.4-2.54.64-4a2,2,0,0,1,2.3-1.64,2,2,0,0,1,1.64,2.31c-.24,1.39-.45,2.69-.63,3.89-.1.62-.21,1.31-.35,2.06A2,2,0,0,1,482.34,378.68ZM29.05,369.44a2,2,0,0,1-2-1.61c-.39-2-.78-4-1.15-5.91a2,2,0,1,1,3.93-.76c.37,1.94.75,3.91,1.14,5.89a2,2,0,0,1-1.57,2.35A1.72,1.72,0,0,1,29.05,369.44Zm456-6.54a2,2,0,0,1-.35,0,2,2,0,0,1-1.63-2.32c.34-1.88.68-3.86,1-5.9a2,2,0,1,1,3.94.67c-.35,2.05-.69,4-1,5.92A2,2,0,0,1,485.05,362.9ZM26,353.69a2,2,0,0,1-2-1.63c-.38-2.06-.74-4.05-1.07-5.93a2,2,0,1,1,3.94-.7c.33,1.87.69,3.85,1.06,5.9a2,2,0,0,1-1.6,2.33Zm461.64-6.58a1.63,1.63,0,0,1-.31,0,2,2,0,0,1-1.67-2.28q.45-2.9.87-5.91a2,2,0,0,1,4,.55c-.28,2-.58,4-.88,6A2,2,0,0,1,487.68,347.11ZM23.32,337.89a2,2,0,0,1-2-1.71c-.31-2-.52-3.69-.64-4.94,0-.37-.08-.76-.11-1.15a2,2,0,0,1,1.82-2.17,2,2,0,0,1,2.16,1.82c0,.38.07.75.11,1.11.11,1.19.32,2.78.61,4.74a2,2,0,0,1-1.68,2.28Zm466.5-6.64-.23,0a2,2,0,0,1-1.76-2.21c.22-2,.43-3.94.61-5.93a2,2,0,0,1,4,.37c-.19,2-.4,4-.63,6A2,2,0,0,1,489.82,331.25ZM22,321.93A2,2,0,0,1,20,320c-.07-2-.12-4-.15-6a2,2,0,0,1,2-2,2,2,0,0,1,2,2c0,2,.08,4,.15,6a2,2,0,0,1-1.93,2.07ZM491.2,315.3h-.11a2,2,0,0,1-1.88-2.11c.11-2,.21-4,.27-5.94a2,2,0,0,1,2.06-1.94,2,2,0,0,1,1.93,2.06c-.06,2-.15,4-.27,6.05A2,2,0,0,1,491.2,315.3ZM21.79,305.92h0a2,2,0,0,1-2-2c0-2.16,0-4.19,0-6a2,2,0,0,1,2-2h0a2,2,0,0,1,2,2c0,1.81,0,3.83,0,6A2,2,0,0,1,21.79,305.92Zm469.77-6.61a2,2,0,0,1-2-2c0-2-.1-4-.19-5.92a2,2,0,0,1,1.89-2.1,2,2,0,0,1,2.1,1.89c.1,2,.17,4,.2,6.07a2,2,0,0,1-2,2ZM21.91,289.93a2,2,0,0,1-2-1.61,42.67,42.67,0,0,0-1.72-5.38A2,2,0,0,1,22,281.47a45.65,45.65,0,0,1,1.92,6.07,2,2,0,0,1-1.57,2.35A1.72,1.72,0,0,1,21.91,289.93Zm470.91-6.4-.34,0a2,2,0,0,1-1.64-2.31c.29-1.73.52-3.68.7-5.78a2,2,0,1,1,4,.32c-.18,2.22-.43,4.28-.73,6.12A2,2,0,0,1,492.82,283.53Zm-473.1-4.34a2,2,0,0,1-2-1.7c-.31-2-.73-4.3-1-5.83a2,2,0,1,1,3.93-.77c.3,1.57.73,3.89,1.05,6A2,2,0,0,1,20,279.17,1.51,1.51,0,0,1,19.72,279.19Zm474.2-11.61h0a2,2,0,0,1-2-2c0-.55,0-1.1,0-1.65,0-1.46,0-2.9,0-4.31a2,2,0,0,1,2-2h0a2,2,0,0,1,2,2c0,1.42,0,2.88,0,4.36,0,.56,0,1.12,0,1.68A2,2,0,0,1,493.92,267.58ZM18.67,263.39a2,2,0,0,1-2-1.67L16.07,258l1-3a2,2,0,0,1,3.79,1.27l-.69,2.06.47,2.79A2,2,0,0,1,19,263.37ZM493.6,251.58a2,2,0,0,1-2-1.85c-.12-1.64-.31-3.63-.56-5.92a2,2,0,1,1,4-.44c.26,2.34.45,4.38.58,6.06a2,2,0,0,1-1.85,2.14ZM21.77,248.07h-.21a2,2,0,0,1-1.78-2.2l.63-6a2,2,0,0,1,4,.41l-.63,6A2,2,0,0,1,21.77,248.07Zm470.06-12.43a2,2,0,0,1-2-1.74c-.26-2-.52-4-.8-6a2,2,0,0,1,4-.54c.28,2,.55,4,.81,6a2,2,0,0,1-1.73,2.24A1.14,1.14,0,0,1,491.83,235.64ZM22.45,232.13a2,2,0,0,1-2-1.77l-.22-1.82c-.16-1.29-.34-2.74-.49-4.16a2,2,0,1,1,4-.44c.16,1.41.33,2.84.49,4.12l.22,1.83a2,2,0,0,1-1.75,2.22Zm467.17-12.37a2,2,0,0,1-2-1.71c-.31-2.12-.6-4.12-.88-5.94a2,2,0,1,1,4-.6c.27,1.83.57,3.84.88,6a2,2,0,0,1-1.69,2.27ZM22.28,216.32a2,2,0,0,1-1.81-2.86,22.54,22.54,0,0,1,2.28-3.71l.16-1a2,2,0,0,1,3.95.59l-.19,1.28a2.45,2.45,0,0,1-.53,1.33,17.15,17.15,0,0,0-2.05,3.26A2,2,0,0,1,22.28,216.32Zm464.91-12.43a2,2,0,0,1-1.93-1.5,11.45,11.45,0,0,0-2.33-4.43,2,2,0,1,1,3-2.68,15.3,15.3,0,0,1,3.23,6.1,2,2,0,0,1-1.43,2.44A2.24,2.24,0,0,1,487.19,203.89ZM26.92,201.42a2,2,0,0,1-.84-3.82,50,50,0,0,0,4.8-3,2,2,0,1,1,2.24,3.31,48.26,48.26,0,0,1-5.36,3.37A1.94,1.94,0,0,1,26.92,201.42Zm450.5-9A2,2,0,0,1,475.5,191c-.51-1.78-1.08-3.7-1.71-5.71a2,2,0,1,1,3.81-1.2c.64,2,1.23,4,1.74,5.82a2,2,0,0,1-1.38,2.47A2,2,0,0,1,477.42,192.45Zm-440.13-2.1a1.87,1.87,0,0,1-.57-.08,2,2,0,0,1-1.35-2.48c.49-1.69,1.08-3.68,1.71-5.78a2,2,0,0,1,3.84,1.15c-.63,2.1-1.22,4.07-1.72,5.76A2,2,0,0,1,37.29,190.35Zm435.25-13.18a2,2,0,0,1-1.88-1.34q-.93-2.67-2-5.63a2,2,0,1,1,3.75-1.38q1.11,3,2.05,5.69a2,2,0,0,1-1.23,2.54A1.92,1.92,0,0,1,472.54,177.17ZM42,175a1.86,1.86,0,0,1-.61-.1A2,2,0,0,1,40,172.4c.72-2.27,1.36-4.21,1.9-5.76A2,2,0,1,1,45.72,168c-.53,1.52-1.15,3.42-1.86,5.66A2,2,0,0,1,42,175Zm424.94-12.84a2,2,0,0,1-1.85-1.25c-.73-1.79-1.49-3.63-2.3-5.51a2,2,0,1,1,3.68-1.57c.82,1.9,1.59,3.77,2.32,5.58a2,2,0,0,1-1.1,2.61A2,2,0,0,1,466.89,162.17Zm-419.2-2.11a1.86,1.86,0,0,1-.73-.14,2,2,0,0,1-1.13-2.59l.44-1.12c.51-1.29,1.09-2.78,1.77-4.47a2,2,0,1,1,3.71,1.5L50,157.67l-.44,1.13A2,2,0,0,1,47.69,160.06Zm412.83-12.58a2,2,0,0,1-1.82-1.16c-.82-1.78-1.68-3.57-2.56-5.39a2,2,0,1,1,3.59-1.75c.9,1.83,1.76,3.66,2.6,5.45a2,2,0,0,1-1,2.66A2,2,0,0,1,460.52,147.48ZM53.76,145.27a2,2,0,0,1-.8-.17,2,2,0,0,1-1-2.63q1.13-2.57,2.46-5.51A2,2,0,1,1,58,138.62c-.88,1.94-1.69,3.75-2.43,5.45A2,2,0,0,1,53.76,145.27Zm399.63-12.14a2,2,0,0,1-1.77-1.06q-1.38-2.61-2.85-5.23a2,2,0,0,1,3.49-2q1.49,2.67,2.9,5.31a2,2,0,0,1-.83,2.71A2,2,0,0,1,453.39,133.13ZM60.46,130.75a2.08,2.08,0,0,1-.87-.2,2,2,0,0,1-.92-2.67c.83-1.73,1.72-3.53,2.65-5.41a2,2,0,1,1,3.58,1.79c-.93,1.86-1.81,3.64-2.64,5.36A2,2,0,0,1,60.46,130.75Zm385-11.53a2,2,0,0,1-1.7-1c-1-1.7-2.11-3.39-3.18-5a2,2,0,0,1,3.36-2.17c1.08,1.67,2.17,3.39,3.23,5.12a2,2,0,0,1-1.71,3ZM67.9,116.58a2,2,0,0,1-1.71-3c1-1.66,2.16-3.38,3.36-5.11a2,2,0,1,1,3.28,2.29c-1.15,1.66-2.24,3.32-3.23,4.92A2,2,0,0,1,67.9,116.58Zm368.72-10.71A2,2,0,0,1,435,105c-1.16-1.62-2.34-3.23-3.52-4.77a2,2,0,1,1,3.18-2.43c1.2,1.58,2.41,3.22,3.59,4.87a2,2,0,0,1-1.62,3.16Zm-359.41-2.3a2,2,0,0,1-1.25-.44,2,2,0,0,1-.3-2.82c1.24-1.53,2.55-3.1,3.9-4.65a2,2,0,1,1,3,2.62c-1.32,1.52-2.6,3-3.81,4.55A2,2,0,0,1,77.21,103.57ZM426.79,93.26a2,2,0,0,1-1.52-.7c-1.28-1.51-2.6-3-3.92-4.45a2,2,0,1,1,2.95-2.7c1.35,1.48,2.7,3,4,4.56a2,2,0,0,1-1.52,3.29Zm-339-1.69A2,2,0,0,1,86.44,91a2,2,0,0,1-.07-2.83c1.38-1.44,2.8-2.89,4.25-4.32a2,2,0,1,1,2.82,2.83C92,88.11,90.62,89.54,89.26,91A2,2,0,0,1,87.82,91.57Zm328-10a2,2,0,0,1-1.39-.56c-1.42-1.37-2.89-2.72-4.35-4a2,2,0,0,1,2.64-3q2.26,2,4.49,4.13a2,2,0,0,1-1.39,3.44ZM99.26,80.36a2,2,0,0,1-1.47-.64,2,2,0,0,1,.12-2.83c1.6-1.47,3.11-2.83,4.49-4a2,2,0,0,1,2.65,3c-1.37,1.2-2.86,2.54-4.44,4A2,2,0,0,1,99.26,80.36Zm304.41-9.14a2,2,0,0,1-1.07-.31c-2.21-1.41-3.92-2.54-5.09-3.38a2,2,0,1,1,2.33-3.25c1.11.79,2.76,1.89,4.9,3.25a2,2,0,0,1-1.07,3.69ZM111.38,69.86a2,2,0,0,1-1.56-.74,2,2,0,0,1,.3-2.81l.68-.55c.46-.4,3-2.63,4.06-3.36a2,2,0,0,1,2.77.47,2,2,0,0,1-.41,2.76l-.06.05c-.7.48-2.67,2.17-3.76,3.12l-.09.08-.68.54A2,2,0,0,1,111.38,69.86Zm280.16-9a2,2,0,0,1-1.32-.5c-.27-.23-.53-.46-.79-.66l-.08-.07a24.23,24.23,0,0,0-3.5-2.55,2,2,0,1,1,1.78-3.58,25.65,25.65,0,0,1,4.22,3l.09.07q.45.36.93.78a2,2,0,0,1,.18,2.83A2,2,0,0,1,391.54,60.91ZM128.46,59.7a2,2,0,0,1-1.75-1,2.3,2.3,0,0,1-.18-.43h-1.85l-.11.12a2,2,0,0,1-2.88-2.78L123,54.23l4.51,0,1.7.34a1.77,1.77,0,0,1,.46.15l3.12-1.7a2,2,0,1,1,1.92,3.51l-5.25,2.88A2,2,0,0,1,128.46,59.7Zm248.92-4.35a2,2,0,0,1-.83-.18c-1.54-.7-3.39-1.54-5.46-2.45a2,2,0,1,1,1.62-3.66c2.08.92,4,1.76,5.5,2.47a2,2,0,0,1-.83,3.82ZM142.54,52.11a2,2,0,0,1-.87-3.8c1.7-.83,3.57-1.68,5.58-2.52a2,2,0,0,1,1.54,3.69c-1.93.81-3.74,1.63-5.37,2.42A2,2,0,0,1,142.54,52.11Zm220.17-3.19a1.9,1.9,0,0,1-.77-.16c-1.8-.76-3.66-1.53-5.53-2.28a2,2,0,0,1,1.5-3.71c1.89.76,3.76,1.54,5.58,2.3a2,2,0,0,1-.78,3.85ZM157.37,46.07a2,2,0,0,1-.66-3.89c1.82-.64,3.75-1.29,5.74-1.93a2,2,0,1,1,1.23,3.8c-2,.63-3.85,1.27-5.65,1.9A1.88,1.88,0,0,1,157.37,46.07Zm190.45-3a1.91,1.91,0,0,1-.66-.11c-1.69-.59-3.59-1.2-5.64-1.82a2,2,0,0,1,1.16-3.83c2.1.64,4.05,1.27,5.8,1.87a2,2,0,0,1-.66,3.89Zm-175.17-1.8a2,2,0,0,1-.56-3.92c1.94-.56,3.88-1.11,5.82-1.63A2,2,0,0,1,179,39.54q-2.88.78-5.76,1.61A2.09,2.09,0,0,1,172.65,41.23Zm159.81-2.74a2.2,2.2,0,0,1-.5-.06c-1.9-.5-3.84-1-5.79-1.46a2,2,0,1,1,.94-3.88c2,.48,3.94,1,5.86,1.47a2,2,0,0,1-.51,3.93Zm-144.34-1.4a2,2,0,0,1-.48-3.94c2-.5,4-1,5.86-1.43a2,2,0,1,1,.92,3.9c-1.88.44-3.83.92-5.81,1.41A2.12,2.12,0,0,1,188.12,37.09Zm128.77-2.31a2.09,2.09,0,0,1-.43,0c-2-.44-3.94-.85-5.85-1.24a2,2,0,0,1,.8-3.92q2.89.59,5.9,1.25a2,2,0,0,1-.42,4ZM203.73,33.45a2,2,0,0,1-.43-4c2.13-.46,4.11-.88,5.91-1.25a2,2,0,1,1,.81,3.91l-5.86,1.25A2.18,2.18,0,0,1,203.73,33.45Zm97.45-1.78a2.07,2.07,0,0,1-.35,0c-2.15-.38-4.13-.7-5.87-.95a2,2,0,0,1,.57-4c1.79.26,3.8.59,6,1a2,2,0,0,1-.34,4Zm-81.72-1.4a2,2,0,0,1-.34-4l.42-.06a21.46,21.46,0,0,0,3.22-1.45l1.31-.66a2,2,0,1,1,1.78,3.58l-1.29.65A15.76,15.76,0,0,1,220,30.22l-.15,0A2,2,0,0,1,219.46,30.27ZM286,27.37a2,2,0,0,1-1-.3L283.19,26c-1.14-.71-2.22-1.38-3.11-1.88l-.22-.13a2,2,0,0,1,2-3.48l.22.13c1,.54,2.07,1.24,3.24,2L287,23.66a2,2,0,0,1-1,3.71Zm-52-3.74a2,2,0,0,1-.86-3.81l5.3-2.51h0a2.3,2.3,0,0,1,.94-.2,2,2,0,0,1,2,2,2.06,2.06,0,0,1-.33,1.15l-.07.28-.33.16a2.06,2.06,0,0,1-.87.41l-5,2.37A2,2,0,0,1,234,23.63ZM271.49,21h-.15c-1.19-.08-3.16-.14-5.87-.16a2,2,0,0,1,0-4h0c2.8,0,4.86.08,6.13.17a2,2,0,0,1-.14,4Zm-22-.07a2,2,0,0,1,0-4l6-.08h0a2,2,0,0,1,0,4l-6,.08Z"/><polygon class="cls-1" points="272 277 257.5 277 257.5 262.5 254.5 262.5 254.5 277 240 277 240 280 254.5 280 254.5 294.5 257.5 294.5 257.5 280 272 280 272 277"/></svg>