<svg id="Calque_1" data-name="Calque 1" xmlns="http://www.w3.org/2000/svg" viewBox="0 0 40 40"><title>layer</title><path d="M23.92,31.05H6.1A3.15,3.15,0,0,1,3,27.91V4.25A3.15,3.15,0,0,1,6.1,1.11H23.92a3.15,3.15,0,0,1,3.14,3.14V27.91A3.15,3.15,0,0,1,23.92,31.05ZM6.1,3.39a.86.86,0,0,0-.85.86V27.91a.86.86,0,0,0,.85.86H23.92a.87.87,0,0,0,.86-.86V4.25a.87.87,0,0,0-.86-.86Z"/><path d="M33.61,38.89H16.36a3.43,3.43,0,0,1-3.42-3.42V33.33h2.29v2.14a1.14,1.14,0,0,0,1.13,1.14H33.61a1.14,1.14,0,0,0,1.14-1.14V12.37a1.14,1.14,0,0,0-1.14-1.14H30.76V9h2.85A3.43,3.43,0,0,1,37,12.37v23.1A3.43,3.43,0,0,1,33.61,38.89Z"/></svg>