<svg id="Calque_1" data-name="Calque 1" xmlns="http://www.w3.org/2000/svg" viewBox="0 0 221 40"><title>logo_Roger_Dubuis</title><path d="M31.69,26.52c-3.78,0-6.05-3.31-6.05-6.52,0-3.89,2.46-6.6,6-6.6s6.16,2.76,6.16,6.56-2.56,6.56-6.09,6.56M38.46,13a9.47,9.47,0,0,0-6.88-2.83A9.27,9.27,0,0,0,25,12.79,9.89,9.89,0,0,0,22.21,20a9.73,9.73,0,0,0,9.44,9.89A9.57,9.57,0,0,0,41.18,20,10.06,10.06,0,0,0,38.46,13"/><polygon points="80.77 16.5 80.77 10.59 64.91 10.59 64.91 13.9 67.22 13.9 67.22 26.11 64.91 26.11 64.91 29.42 80.77 29.42 80.77 23.66 77.29 23.66 77.29 26.1 70.68 26.1 70.68 21.5 75.74 21.5 75.74 18.15 70.68 18.15 70.68 13.9 77.29 13.9 77.29 16.5 80.77 16.5"/><path d="M149.28,13.9h1.89V10.59h-7.8V13.9h2.34v8.41a4.24,4.24,0,0,1-1,3,4.53,4.53,0,0,1-3.29,1.1c-2.79,0-4.09-1.38-4.09-4.14V13.9h2.32V10.59h-7.8V13.9h1.85v8.42c0,5.94,4.87,7.53,7.74,7.53,2.71,0,7.82-1.58,7.82-7.53Z"/><path d="M189.56,13.9h1.89V10.59h-7.8V13.9H186s0,7.75,0,8.41a4.2,4.2,0,0,1-1,3,4.52,4.52,0,0,1-3.29,1.1c-2.78,0-4.08-1.38-4.08-4.14V13.9H180V10.59h-7.8V13.9H174v8.42c0,5.94,4.86,7.53,7.74,7.53,2.7,0,7.81-1.58,7.81-7.53Z"/><path d="M212.34,18.23c-2.36-.73-4.78-1.5-4.78-3s1.86-2.14,3.14-2.14c2.55,0,3.88,1.1,4.26,3.39h3V10.59h-3v1.73h-.05c-.18-.4-1-2.17-4.28-2.17-3.68,0-6.55,1.85-6.55,5.06s1.94,5,6.74,6.2c1.83.44,3.48,1.2,3.8,2.24.39,1.25-.1,3.24-3.23,3.24a4.3,4.3,0,0,1-4.31-3.42H204v6h3.05V27.58h0c.38.75,1.56,2.27,4.65,2.27,4,0,6.58-2.58,6.58-5.62,0-3.31-2.43-4.9-6-6"/><path d="M121.28,26.1h-2.71V13.9h3a6.2,6.2,0,0,1,3.56,1.25,5.84,5.84,0,0,1,2.18,4.92c0,5.24-3.75,6-6,6m1.41-15.51H112.6V13.9h2.48V26.11h-2.46v3.31h10.09c2.73,0,8.09-2.82,8.09-9.36,0-6.22-5.28-9.47-8.11-9.47"/><path d="M164.7,26.1h-5.44V21.39h5.44a2.43,2.43,0,0,1,2.37,2.51,2.11,2.11,0,0,1-2.37,2.2m-5.44-12.21h5.41A2.14,2.14,0,0,1,166.55,16c0,1.49-.67,2.26-1.88,2.26h-5.41Zm9.49,5.95-.11-.11.08-.14a7.28,7.28,0,0,0,1.2-3.83,5.07,5.07,0,0,0-5.06-5.17h-11.4V13.9h2.25V26.1h-2.26v3.32h11.36c2.87,0,5.79-1.82,5.79-5.32a5.81,5.81,0,0,0-1.86-4.26"/><polygon points="201.17 10.59 193.37 10.59 193.37 13.9 195.52 13.9 195.52 26.1 193.37 26.1 193.37 29.41 201.17 29.41 201.17 26.1 199.01 26.1 199.01 13.9 201.17 13.9 201.17 10.59"/><path d="M13.31,13.91a2.65,2.65,0,0,1,2.83,2.7,2.7,2.7,0,0,1-2.87,2.8H8.4v-5.5Zm-.21,8.75L17,29.42h4.57V26.11H19.17l-2.62-4.27.17-.1a5.69,5.69,0,0,0,2.94-5.21,6,6,0,0,0-5.6-5.94H2.67V13.9H4.83V26.11H2.67v3.31h7.76V26.11H8.35V22.66Z"/><path d="M94.72,13.91a2.65,2.65,0,0,1,2.84,2.7,2.71,2.71,0,0,1-2.88,2.8H89.81v-5.5Zm-.2,8.75,3.9,6.76H103V26.11h-2.4L98,21.84l.17-.1a5.69,5.69,0,0,0,2.94-5.21,6,6,0,0,0-5.59-5.94H84.08V13.9h2.16V26.11H84.08v3.31h7.77V26.11H89.76V22.66Z"/><path d="M61.6,19.27H53.24v3.2h5l-.1.28a5.88,5.88,0,0,1-5.8,3.8c-4.29,0-5.85-4-5.85-6.7,0-4.2,2.47-6.6,6.16-6.6A5.79,5.79,0,0,1,58,16.5h3.13V10.59H58v1.72h0a7.89,7.89,0,0,0-5.76-2.16,9.31,9.31,0,0,0-9.28,9.63,10.4,10.4,0,0,0,2.67,7.07,9.2,9.2,0,0,0,6.86,3,8.41,8.41,0,0,0,6-2.51v2.09H61.6Z"/></svg>