<svg id="Calque_1" data-name="Calque 1" xmlns="http://www.w3.org/2000/svg" viewBox="0 0 40 40"><title>send-2</title><path d="M15.84,38.08a1.43,1.43,0,0,1-.46-.07,1.53,1.53,0,0,1-1.07-1.34l-.77-10a1.42,1.42,0,0,1,.12-.71l-.53.39a1.51,1.51,0,0,1-1.58.15l-10.16-5a1.53,1.53,0,0,1-.85-1.39,1.55,1.55,0,0,1,.88-1.37L37.29,2.06a1.53,1.53,0,0,1,1.65.23h0a1.5,1.5,0,0,1,.45,1.6L30,33.82a1.53,1.53,0,0,1-2.11.92l-6-2.87L17,37.55A1.51,1.51,0,0,1,15.84,38.08ZM15.5,26.67l.68,8.84L20.9,30a1,1,0,0,1,1.16-.24l6.22,3,9-28.54L3,20.12l9.13,4.48,9.66-7.22a1,1,0,0,1,1.29,1.45Z"/></svg>