<svg id="Calque_1" data-name="Calque 1" xmlns="http://www.w3.org/2000/svg" viewBox="0 0 187 246"><defs><style>.cls-1{fill:#f2cb1d;}</style></defs><title>visage</title><path class="cls-1" d="M93.49,235.5c-1.69,0-3.41-.07-5.1-.21A1.49,1.49,0,0,1,87,233.68a1.51,1.51,0,0,1,1.61-1.38,57.17,57.17,0,0,0,5.85.19A1.52,1.52,0,0,1,96,234a1.5,1.5,0,0,1-1.48,1.52Zm10.94-1a1.5,1.5,0,0,1-.26-3c1.9-.35,3.81-.79,5.69-1.32a1.5,1.5,0,0,1,.81,2.89c-2,.55-4,1-6,1.38Zm-25.77-.83a1.53,1.53,0,0,1-.36,0c-2-.49-3.94-1.08-5.87-1.75a1.5,1.5,0,1,1,1-2.83c1.84.64,3.73,1.2,5.6,1.67a1.49,1.49,0,0,1,1.1,1.81A1.51,1.51,0,0,1,78.66,233.69Zm41-3.95a1.5,1.5,0,0,1-.62-2.87c1.76-.8,3.52-1.69,5.22-2.66a1.5,1.5,0,0,1,1.48,2.62c-1.79,1-3.62,1.94-5.46,2.77A1.37,1.37,0,0,1,119.64,229.74ZM63.77,228a1.52,1.52,0,0,1-.7-.18c-1.78-.93-3.56-2-5.29-3.07a1.5,1.5,0,1,1,1.61-2.53c1.67,1.06,3.37,2,5.08,2.95a1.5,1.5,0,0,1-.7,2.83Zm69.56-6.45a1.5,1.5,0,0,1-.9-2.7c1.54-1.16,3.07-2.41,4.56-3.71a1.5,1.5,0,1,1,2,2.26c-1.54,1.35-3.14,2.64-4.74,3.85A1.5,1.5,0,0,1,133.33,221.54Zm-82.8-2.47a1.51,1.51,0,0,1-1-.35c-1.53-1.28-3.06-2.65-4.54-4.07a1.5,1.5,0,1,1,2.08-2.16c1.43,1.37,2.9,2.69,4.38,3.93a1.5,1.5,0,0,1-1,2.65Zm94.58-8.32a1.5,1.5,0,0,1-1.11-2.51c1.31-1.44,2.6-3,3.84-4.48a1.49,1.49,0,0,1,2.1-.24,1.51,1.51,0,0,1,.24,2.11c-1.28,1.59-2.61,3.15-4,4.63A1.48,1.48,0,0,1,145.11,210.75Zm-105.86-3a1.53,1.53,0,0,1-1.15-.54c-1.29-1.54-2.55-3.15-3.76-4.79a1.5,1.5,0,1,1,2.41-1.78c1.17,1.59,2.4,3.15,3.65,4.64a1.51,1.51,0,0,1-.18,2.12A1.54,1.54,0,0,1,39.25,207.76Zm115.62-9.66a1.56,1.56,0,0,1-.82-.24,1.51,1.51,0,0,1-.43-2.08c1.07-1.63,2.11-3.32,3.1-5a1.5,1.5,0,0,1,2.6,1.51c-1,1.76-2.1,3.5-3.19,5.17A1.51,1.51,0,0,1,154.87,198.1ZM30,194.73A1.52,1.52,0,0,1,28.7,194c-1-1.72-2-3.5-3-5.29a1.5,1.5,0,1,1,2.65-1.41c.93,1.74,1.91,3.47,2.92,5.15a1.5,1.5,0,0,1-.51,2.06A1.54,1.54,0,0,1,30,194.73Zm132.67-10.59A1.64,1.64,0,0,1,162,184a1.51,1.51,0,0,1-.72-2c.84-1.78,1.65-3.6,2.4-5.42a1.5,1.5,0,0,1,2.77,1.15c-.77,1.86-1.59,3.73-2.45,5.55A1.51,1.51,0,0,1,162.66,184.14Zm-140-3.63a1.51,1.51,0,0,1-1.38-.9c-.79-1.84-1.56-3.73-2.28-5.63a1.5,1.5,0,0,1,2.81-1.06c.7,1.86,1.45,3.71,2.23,5.5a1.5,1.5,0,0,1-.78,2A1.61,1.61,0,0,1,22.68,180.51Zm145.87-11.24a1.53,1.53,0,0,1-.47-.07,1.5,1.5,0,0,1-1-1.89c.61-1.87,1.18-3.78,1.71-5.68a1.5,1.5,0,1,1,2.89.8c-.54,1.95-1.13,3.9-1.75,5.81A1.49,1.49,0,0,1,168.55,169.27Zm-151.3-3.8a1.49,1.49,0,0,1-1.43-1.08c-.57-1.92-1.1-3.89-1.58-5.85a1.5,1.5,0,1,1,2.91-.72c.47,1.92,1,3.85,1.55,5.73a1.51,1.51,0,0,1-1,1.86A1.54,1.54,0,0,1,17.25,165.47ZM172.6,153.8a1,1,0,0,1-.29,0,1.49,1.49,0,0,1-1.18-1.76c.39-1.93.74-3.89,1.05-5.85a1.5,1.5,0,0,1,3,.47c-.32,2-.68,4-1.08,6A1.5,1.5,0,0,1,172.6,153.8Zm-159-3.91a1.49,1.49,0,0,1-1.47-1.24c-.34-2-.65-4-.91-6a1.5,1.5,0,1,1,3-.39c.26,2,.56,4,.89,5.88a1.5,1.5,0,0,1-1.22,1.73ZM174.89,138h-.13a1.5,1.5,0,0,1-1.36-1.63c.17-2,.31-4,.41-5.92a1.5,1.5,0,1,1,3,.15c-.09,2-.23,4-.41,6A1.51,1.51,0,0,1,174.89,138Zm-163.1-4a1.5,1.5,0,0,1-1.5-1.41c-.13-2-.21-4-.26-6a1.5,1.5,0,1,1,3-.07c.05,2,.13,4,.25,5.93a1.49,1.49,0,0,1-1.4,1.59Zm163.68-12a1.5,1.5,0,0,1-1.5-1.48c0-2-.1-4-.21-5.94a1.5,1.5,0,1,1,3-.16c.11,2,.19,4,.22,6A1.51,1.51,0,0,1,175.5,122ZM11.63,118h-.07a1.49,1.49,0,0,1-1.43-1.56c.09-2,.21-4,.38-6a1.5,1.5,0,1,1,3,.24c-.16,2-.29,4-.37,5.93A1.51,1.51,0,0,1,11.63,118Zm162.73-12a1.5,1.5,0,0,1-1.49-1.31c-.24-2-.53-4-.85-5.88a1.5,1.5,0,1,1,3-.49c.33,2,.62,4,.87,6a1.5,1.5,0,0,1-1.3,1.67ZM13.16,102.1l-.22,0a1.5,1.5,0,0,1-1.26-1.71c.3-2,.65-4,1-6a1.5,1.5,0,1,1,2.94.57c-.37,1.93-.71,3.9-1,5.85A1.49,1.49,0,0,1,13.16,102.1ZM171.53,90.3a1.49,1.49,0,0,1-1.46-1.15c-.47-1.93-1-3.87-1.51-5.74a1.5,1.5,0,0,1,2.89-.82c.54,1.91,1.06,3.88,1.54,5.86a1.51,1.51,0,0,1-1.11,1.81A1.45,1.45,0,0,1,171.53,90.3ZM16.44,86.45a1.32,1.32,0,0,1-.39-.06A1.5,1.5,0,0,1,15,84.55c.52-2,1.1-3.91,1.71-5.82a1.5,1.5,0,0,1,1.88-1,1.48,1.48,0,0,1,1,1.88c-.59,1.87-1.15,3.79-1.67,5.7A1.49,1.49,0,0,1,16.44,86.45ZM166.9,75a1.49,1.49,0,0,1-1.4-1c-.69-1.85-1.42-3.71-2.19-5.51a1.5,1.5,0,1,1,2.77-1.17c.78,1.85,1.53,3.75,2.23,5.65a1.49,1.49,0,0,1-.89,1.92A1.34,1.34,0,0,1,166.9,75ZM21.51,71.28a1.36,1.36,0,0,1-.56-.11,1.5,1.5,0,0,1-.83-2c.76-1.88,1.57-3.76,2.41-5.57a1.5,1.5,0,1,1,2.72,1.25c-.81,1.77-1.6,3.6-2.35,5.44A1.49,1.49,0,0,1,21.51,71.28Zm138.92-10.9a1.51,1.51,0,0,1-1.33-.81c-.92-1.75-1.89-3.49-2.88-5.17a1.5,1.5,0,1,1,2.58-1.53c1,1.72,2,3.51,3,5.31a1.51,1.51,0,0,1-1.33,2.2Zm-132-3.5a1.48,1.48,0,0,1-.74-.19,1.51,1.51,0,0,1-.57-2c1-1.77,2.07-3.52,3.15-5.2a1.5,1.5,0,1,1,2.52,1.62c-1.05,1.63-2.08,3.34-3.06,5.06A1.49,1.49,0,0,1,28.46,56.88ZM152,46.77a1.48,1.48,0,0,1-1.21-.62c-1.17-1.6-2.38-3.18-3.61-4.68a1.5,1.5,0,0,1,2.32-1.9c1.27,1.55,2.52,3.17,3.72,4.82a1.51,1.51,0,0,1-.34,2.1A1.49,1.49,0,0,1,152,46.77ZM37.35,43.6a1.54,1.54,0,0,1-.93-.32,1.51,1.51,0,0,1-.25-2.11c1.26-1.6,2.57-3.17,3.91-4.67a1.5,1.5,0,0,1,2.24,2C41,40,39.75,41.47,38.53,43A1.51,1.51,0,0,1,37.35,43.6Zm104.28-9a1.54,1.54,0,0,1-1-.43c-1.4-1.39-2.86-2.73-4.34-4a1.5,1.5,0,0,1,1.95-2.28c1.53,1.31,3,2.7,4.5,4.13a1.5,1.5,0,0,1-1.06,2.57ZM48.25,31.91a1.5,1.5,0,0,1-1-2.61c1.53-1.37,3.11-2.69,4.69-3.92a1.5,1.5,0,0,1,1.84,2.38c-1.53,1.18-3.05,2.45-4.52,3.77A1.49,1.49,0,0,1,48.25,31.91Zm81-7.34a1.57,1.57,0,0,1-.83-.24c-1.64-1.08-3.34-2.1-5-3a1.5,1.5,0,0,1,1.43-2.64c1.77,1,3.53,2,5.25,3.15a1.5,1.5,0,0,1-.82,2.75ZM61.13,22.48a1.5,1.5,0,0,1-.76-2.8c1.78-1,3.6-2,5.42-2.85a1.5,1.5,0,1,1,1.28,2.71c-1.74.83-3.49,1.75-5.19,2.74A1.48,1.48,0,0,1,61.13,22.48ZM115,17.36a1.52,1.52,0,0,1-.51-.09c-1.84-.67-3.71-1.27-5.58-1.76a1.5,1.5,0,0,1-1.07-1.83,1.52,1.52,0,0,1,1.84-1.07c1.95.52,3.92,1.14,5.84,1.84a1.5,1.5,0,0,1-.52,2.91ZM75.75,16.11a1.5,1.5,0,0,1-.43-2.94c2-.59,4-1.08,6-1.47a1.5,1.5,0,1,1,.58,2.94c-1.89.37-3.8.84-5.67,1.4A1.29,1.29,0,0,1,75.75,16.11Zm23.72-2.32h-.14c-2-.19-3.94-.25-5.88-.28-.65,0-1.29,0-1.93,0a1.5,1.5,0,1,1-.1-3c.69,0,1.37,0,2.07,0,2,0,4.1.1,6.13.3a1.5,1.5,0,0,1-.15,3Z"/><polygon class="cls-1" points="109.5 121.5 95 121.5 95 107 92 107 92 121.5 77.5 121.5 77.5 124.5 92 124.5 92 139 95 139 95 124.5 109.5 124.5 109.5 121.5"/></svg>